<svg xmlns="http://www.w3.org/2000/svg" width="512" height="512" viewBox="0 0 512 512">
  <g id="Grupo_2" data-name="Grupo 2" transform="translate(-448 830)">
    <g id="Elipse_2" data-name="Elipse 2" transform="translate(482 -796)" fill="#fff" stroke="#707070" stroke-width="1">
      <circle cx="222.5" cy="222.5" r="222.5" stroke="none"/>
      <circle cx="222.5" cy="222.5" r="222" fill="none"/>
    </g>
    <g id="instagram" transform="translate(448 -830)">
      <path id="Trazado_13" data-name="Trazado 13" d="M305,256a49,49,0,1,1-49-49A49,49,0,0,1,305,256Zm0,0"/>
      <path id="Trazado_14" data-name="Trazado 14" d="M370.594,169.3a48.679,48.679,0,0,0-27.9-27.9c-5.18-2.012-12.961-4.406-27.293-5.059-15.5-.707-20.152-.859-59.4-.859s-43.9.148-59.4.855c-14.332.656-22.117,3.051-27.293,5.063a48.7,48.7,0,0,0-27.9,27.9c-2.012,5.18-4.406,12.965-5.059,27.3-.707,15.5-.859,20.148-.859,59.4s.152,43.9.859,59.4c.652,14.332,3.047,22.113,5.059,27.293a48.679,48.679,0,0,0,27.9,27.9c5.18,2.016,12.965,4.41,27.3,5.063,15.5.707,20.145.855,59.4.855s43.906-.148,59.4-.855c14.332-.652,22.117-3.047,27.3-5.062a48.679,48.679,0,0,0,27.9-27.9c2.012-5.18,4.406-12.961,5.063-27.293.707-15.5.855-20.152.855-59.4s-.148-43.9-.855-59.4c-.652-14.332-3.047-22.117-5.062-27.3ZM256,331.485A75.484,75.484,0,1,1,331.484,256,75.485,75.485,0,0,1,256,331.485Zm78.469-136.313a17.641,17.641,0,1,1,17.641-17.641A17.641,17.641,0,0,1,334.469,195.172Zm0,0"/>
      <path id="Trazado_15" data-name="Trazado 15" d="M256,0C114.637,0,0,114.637,0,256S114.637,512,256,512,512,397.363,512,256,397.363,0,256,0ZM402.113,316.605c-.711,15.648-3.2,26.332-6.832,35.684a75.164,75.164,0,0,1-42.992,42.992c-9.348,3.633-20.035,6.117-35.68,6.832-15.676.715-20.684.887-60.605.887s-44.93-.172-60.609-.887c-15.645-.715-26.332-3.2-35.68-6.832a75.164,75.164,0,0,1-42.992-42.992c-3.633-9.348-6.121-20.035-6.832-35.68C109.168,300.929,109,295.921,109,256s.168-44.93.887-60.605c.711-15.648,3.2-26.332,6.828-35.684a75.215,75.215,0,0,1,43-42.992c9.352-3.633,20.035-6.117,35.684-6.832C211.07,109.171,216.078,109,256,109s44.93.172,60.605.891c15.648.711,26.332,3.2,35.684,6.824a75.185,75.185,0,0,1,42.992,43c3.637,9.352,6.121,20.035,6.836,35.684.715,15.676.883,20.684.883,60.605S402.832,300.929,402.113,316.605Zm0,0"/>
    </g>
  </g>
</svg>
