<svg xmlns="http://www.w3.org/2000/svg" width="200" height="200" viewBox="0 0 200 200">
  <g id="Grupo_1" data-name="Grupo 1" transform="translate(-323 -115)">
    <g id="Elipse_1" data-name="Elipse 1" transform="translate(323 115)" stroke="#707070" stroke-width="1">
      <circle cx="100" cy="100" r="100" stroke="none"/>
      <circle cx="100" cy="100" r="99.5" fill="none"/>
    </g>
    <path id="Uni贸n_1" data-name="Uni贸n 1" d="M11,98A11,11,0,0,1,0,87V11A11,11,0,0,1,11,0h89a10.954,10.954,0,0,1,5.037,1.218A41.067,41.067,0,0,1,115,0c21.539,0,39,16.565,39,37s-17.461,37-39,37q-2.025,0-4-.192V87a11,11,0,0,1-11,11Z" transform="translate(353 170)" fill="#fff"/>
    <g id="Intersecci贸n_1" data-name="Intersecci贸n 1" transform="translate(457 188)">
      <path d="M 17.00010108947754 38.49970245361328 C 14.3932991027832 38.49970245361328 11.80612850189209 37.78382110595703 9.500000953674316 36.4269905090332 L 9.500000953674316 2.572718620300293 C 11.80609226226807 1.215877175331116 14.39326000213623 0.5000012516975403 17.00010108947754 0.5000012516975403 C 21.39435195922852 0.5000012516975403 25.52959060668945 2.467431306838989 28.64407157897949 6.03986120223999 C 31.77559089660645 9.631851196289063 33.50020217895508 14.41219139099121 33.50020217895508 19.50030136108398 C 33.50020217895508 24.58801078796387 31.77559089660645 29.36808204650879 28.64407157897949 32.9599494934082 C 25.52956199645996 36.53231048583984 21.39432144165039 38.49970245361328 17.00010108947754 38.49970245361328 Z" stroke="none"/>
      <path d="M 17.00010108947754 37.99970245361328 C 21.24766159057617 37.99970245361328 25.24906158447266 36.09319305419922 28.26719093322754 32.63137054443359 C 31.31932067871094 29.13057136535645 33.00020217895508 24.46720123291016 33.00020217895508 19.50030136108398 C 33.00020217895508 14.5330114364624 31.31932067871094 9.869351387023926 28.26718139648438 6.368431091308594 C 25.24908065795898 2.906541109085083 21.24769020080566 1.000001192092896 17.00010108947754 1.000001192092896 C 14.57480430603027 1.000001192092896 12.16631031036377 1.642105937004089 10.00000095367432 2.861791372299194 L 10.00000095367432 36.13791275024414 C 12.16634178161621 37.35759735107422 14.57483196258545 37.99970245361328 17.00010108947754 37.99970245361328 M 17.00010108947754 38.99970245361328 C 14.10793113708496 38.99970245361328 11.38430118560791 38.17116165161133 9.000000953674316 36.70993041992188 L 9.000000953674316 2.289781332015991 C 11.38430118560791 0.8285212516784668 14.10793113708496 1.226806602971919e-06 17.00010108947754 1.226806602971919e-06 C 26.38890075683594 1.226806602971919e-06 34.00020217895508 8.730001449584961 34.00020217895508 19.50030136108398 C 34.00020217895508 30.26970100402832 26.38890075683594 38.99970245361328 17.00010108947754 38.99970245361328 Z" stroke="none" fill="#707070"/>
    </g>
    <path id="heart" d="M52.479,4.963A15.327,15.327,0,0,0,41.078,0a14.339,14.339,0,0,0-8.956,3.092A18.324,18.324,0,0,0,28.5,6.872a18.314,18.314,0,0,0-3.621-3.781A14.337,14.337,0,0,0,15.923,0a15.328,15.328,0,0,0-11.4,4.963A17.817,17.817,0,0,0,0,17.13c0,4.821,1.8,9.233,5.653,13.887C9.1,35.181,14.063,39.407,19.806,44.3c1.961,1.671,4.183,3.566,6.491,5.583a3.346,3.346,0,0,0,4.406,0c2.308-2.018,4.532-3.913,6.494-5.586,5.742-4.893,10.7-9.118,14.151-13.282C55.2,26.363,57,21.951,57,17.13A17.815,17.815,0,0,0,52.479,4.963Zm0,0" transform="translate(379 194)" stroke="#707070" stroke-width="1"/>
  </g>
</svg>
