<svg xmlns="http://www.w3.org/2000/svg" width="200" height="200" viewBox="0 0 200 200">
  <g id="Grupo_3" data-name="Grupo 3" transform="translate(-634 -152)">
    <circle id="Elipse_1" data-name="Elipse 1" cx="100" cy="100" r="100" transform="translate(634 152)" fill="#ffb9c4"/>
    <path id="Uni贸n_1" data-name="Uni贸n 1" d="M11,98A11,11,0,0,1,0,87V11A11,11,0,0,1,11,0h89a10.954,10.954,0,0,1,5.037,1.218A41.067,41.067,0,0,1,115,0c21.539,0,39,16.565,39,37s-17.461,37-39,37q-2.025,0-4-.192V87a11,11,0,0,1-11,11Z" transform="translate(664 207)" fill="#fff"/>
    <g id="Intersecci贸n_1" data-name="Intersecci贸n 1" transform="translate(768 225)">
      <path id="Trazado_1" data-name="Trazado 1" d="M17,38.5a14.8,14.8,0,0,1-7.5-2.073V2.573A14.8,14.8,0,0,1,17,.5,15.38,15.38,0,0,1,28.644,6.04,20.406,20.406,0,0,1,33.5,19.5a20.4,20.4,0,0,1-4.856,13.46A15.381,15.381,0,0,1,17,38.5Z" fill="#ffb9c4"/>
      <path id="Trazado_2" data-name="Trazado 2" d="M17,38a14.888,14.888,0,0,0,11.267-5.368A19.905,19.905,0,0,0,33,19.5,19.907,19.907,0,0,0,28.267,6.368,14.888,14.888,0,0,0,17,1a14.277,14.277,0,0,0-7,1.862V36.138A14.277,14.277,0,0,0,17,38m0,1a15.232,15.232,0,0,1-8-2.29V2.29A15.232,15.232,0,0,1,17,0c9.389,0,17,8.73,17,19.5S26.389,39,17,39Z" fill="#ffb9c4"/>
    </g>
    <path id="heart" d="M52.479,4.963A15.327,15.327,0,0,0,41.078,0a14.339,14.339,0,0,0-8.956,3.092A18.324,18.324,0,0,0,28.5,6.872a18.314,18.314,0,0,0-3.621-3.781A14.337,14.337,0,0,0,15.923,0a15.328,15.328,0,0,0-11.4,4.963A17.817,17.817,0,0,0,0,17.13c0,4.821,1.8,9.233,5.653,13.887,3.447,4.164,8.41,8.39,14.153,13.283,1.961,1.671,4.183,3.566,6.491,5.583a3.346,3.346,0,0,0,4.406,0c2.308-2.018,4.532-3.913,6.494-5.586,5.742-4.893,10.7-9.118,14.151-13.282C55.2,26.363,57,21.951,57,17.13A17.815,17.815,0,0,0,52.479,4.963Zm0,0" transform="translate(690 231)" fill="#ffb9c4"/>
  </g>
</svg>
