<svg xmlns="http://www.w3.org/2000/svg" width="512" height="512" viewBox="0 0 512 512">
  <g id="Grupo_3" data-name="Grupo 3" transform="translate(-1062 672)">
    <g id="Elipse_1" data-name="Elipse 1" transform="translate(1096 -638)" fill="#fff" stroke="#707070" stroke-width="1">
      <circle cx="222.5" cy="222.5" r="222.5" stroke="none"/>
      <circle cx="222.5" cy="222.5" r="222" fill="none"/>
    </g>
    <path id="twitter" d="M256,0C114.637,0,0,114.637,0,256S114.637,512,256,512,512,397.363,512,256,397.363,0,256,0ZM372.887,199.6q.17,3.779.168,7.594c0,77.645-59.1,167.18-167.184,167.184h0A166.322,166.322,0,0,1,115.8,347.985a119.509,119.509,0,0,0,14.016.813,117.9,117.9,0,0,0,72.98-25.152,58.825,58.825,0,0,1-54.895-40.812,58.564,58.564,0,0,0,26.539-1.008,58.774,58.774,0,0,1-47.141-57.6c0-.266,0-.5.008-.75a58.354,58.354,0,0,0,26.613,7.348,58.809,58.809,0,0,1-18.191-78.445,166.825,166.825,0,0,0,121.117,61.395A58.791,58.791,0,0,1,356.98,160.188a117.856,117.856,0,0,0,37.313-14.262,58.989,58.989,0,0,1-25.84,32.5,117.189,117.189,0,0,0,33.742-9.254,119.411,119.411,0,0,1-29.309,30.43Zm0,0" transform="translate(1062 -672)"/>
  </g>
</svg>
